<svg width="850" height="271" viewBox="0 0 850 271" fill="none" xmlns="http://www.w3.org/2000/svg">
<path d="M686.143 183.242C692.586 183.242 697.741 185.556 701.607 190.184C705.474 194.811 707.406 200.64 707.406 207.67H673.577C673.929 210.833 675.188 213.44 677.355 215.49C679.581 217.54 682.393 218.565 685.791 218.565C691.356 218.565 695.983 216.603 699.674 212.678L705.122 219.005C703.072 221.348 700.26 223.31 696.687 224.892C693.113 226.473 689.306 227.265 685.264 227.265C679.054 227.265 673.811 225.214 669.535 221.113C665.259 217.013 663.121 211.74 663.121 205.297C663.121 198.795 665.23 193.494 669.447 189.394C673.724 185.293 679.289 183.242 686.143 183.242ZM733.022 183.242C739.642 183.242 744.592 184.678 747.872 187.548C751.211 190.36 752.88 194.431 752.88 199.762V226.122H741.896V220.674H741.721C738.323 225.067 733.579 227.265 727.486 227.265C723.386 227.265 719.901 226.064 717.03 223.662C714.219 221.319 712.812 218.155 712.812 214.172C712.813 210.189 714.248 206.996 717.118 204.595C720.047 202.193 724.06 200.992 729.156 200.992H741.896V199.41C741.896 194.08 738.616 191.414 732.056 191.414C727.721 191.414 723.386 192.996 719.051 196.159L715.185 188.778C720.75 185.088 726.696 183.242 733.022 183.242ZM648.331 190.473H658.964V199.787H648.331V226.122H637.436V199.787H630.758V190.473H637.436V178.698H648.331V190.473ZM787.844 183.242C791.183 183.242 794.052 183.946 796.454 185.352C798.856 186.757 800.526 188.69 801.463 191.15C804.626 185.937 809.517 183.33 816.137 183.33C820.999 183.33 824.748 184.795 827.384 187.724C830.02 190.594 831.338 194.636 831.338 199.85V226.122H820.442V200.904C820.442 195.281 818.011 192.469 813.149 192.469C810.045 192.469 807.555 193.494 805.681 195.544C803.806 197.594 802.869 200.23 802.869 203.452V226.122H791.973V201.431C791.973 195.456 789.571 192.469 784.768 192.469C781.663 192.469 779.173 193.552 777.299 195.72C775.424 197.887 774.487 200.582 774.487 203.804V226.122H763.504V184.473H774.487V189.569H774.663C776.01 187.519 777.856 185.967 780.199 184.912C782.542 183.799 785.091 183.242 787.844 183.242ZM732.583 207.758C726.432 207.758 723.357 209.632 723.356 213.381C723.356 217.13 725.67 219.005 730.298 219.005C733.461 219.005 736.185 218.038 738.47 216.105C740.754 214.172 741.896 212.063 741.896 209.778V207.758H732.583ZM685.615 191.941C682.686 191.941 680.138 192.761 677.971 194.401C675.862 195.983 674.544 197.887 674.017 200.113H696.862C696.277 197.712 694.988 195.749 692.996 194.226C691.004 192.703 688.544 191.941 685.615 191.941ZM414.008 135.178V80.6504H449.849V170.122H408.632L352.952 115.594V170.122H317.24V80.6504H358.328L414.008 135.178ZM506.202 170.122H470.49V80.6504H506.202V170.122ZM562.577 114.186H590.609L626.961 80.6504H664.978L621.713 120.714L664.978 170.122H620.434L590.993 136.586H562.577V170.122H526.865V80.6504H562.577V114.186ZM827.509 170.122H791.669L786.037 159.242H710.39L704.629 170.122H668.917L715.766 80.6504H780.661L827.509 170.122ZM722.293 136.33H774.005L756.598 103.05H739.829L722.293 136.33Z" fill="#FF2020"/>
<path d="M279.298 201.297L258.146 183.937V163.797C249.627 160.75 240.547 157.013 231.125 152.647C228.971 157.063 226.612 161.512 224.047 165.955L222.856 167.992C211.78 186.713 198.875 202.197 186.353 212.774C225.854 212.648 264.248 212.297 284.125 211.867L284.188 211.866C285.878 211.83 287.594 211.792 289.337 211.755L289.341 211.765H323.897C320.953 219.532 316.937 226.498 311.997 231.649C310.88 233.009 307.774 235.26 304.434 235.27C295.45 235.574 287.236 235.874 279.528 236.155C237.609 237.684 113.946 238.668 59.3477 236.979C50.6415 236.854 45.5631 236.755 37.4961 233.523C25.2331 228.562 19.1289 217.001 19.1289 207.223C19.129 200.069 21.9459 195.254 25.7432 188.763L25.8359 188.603C31.7534 178.266 45.0379 160.217 59.8262 140.981C52.6185 117.737 53.5622 94.6537 64.3066 75.2344L64.9473 74.0996C69.4075 66.3743 75.1789 59.7196 82.0088 54.1514H40.2822V146.302L19.1309 172.77V33H279.298V201.297ZM177.857 123.123C175.321 126.885 172.837 130.85 170.438 135.004C158.573 155.556 151.72 175.586 149.79 190.956C148.821 198.674 149.189 204.455 150.205 208.278C151.2 212.021 152.446 212.73 152.542 212.785C152.553 212.791 152.578 212.804 152.617 212.823C153.902 212.824 155.191 212.823 156.483 212.823C156.832 212.751 157.208 212.665 157.613 212.556C161.433 211.524 166.623 208.952 172.822 204.254C185.168 194.897 199.088 178.948 210.954 158.396C213.352 154.242 215.543 150.107 217.532 146.03C210.91 142.654 204.176 139 197.399 135.088C190.626 131.177 184.095 127.171 177.857 123.123ZM143.288 98.3037C131.139 113.555 107.682 139.841 88.3418 165.949C99.3272 182.887 115.089 199.182 134.923 212.798C135.205 212.799 135.488 212.799 135.771 212.8C130.498 194.366 137.878 161.982 156.176 129.494L157.345 127.444C159.91 123.001 162.582 118.733 165.329 114.66C157.399 109.078 150.089 103.477 143.532 97.9873C143.453 98.0903 143.373 98.1972 143.288 98.3037ZM78.9795 179.095C75.0038 184.936 71.374 190.67 68.2715 196.166C66.2994 199.758 65.6685 202.135 66.4248 204.998C67.4156 209.825 69.3876 212.049 75.4834 212.175C84.2567 212.405 96.1441 212.566 109.888 212.671C97.7092 202.328 87.3239 190.962 78.9795 179.095ZM245.407 79.8789C249.629 93.4822 246.659 115.099 237.244 138.818C244.494 142.183 251.498 145.146 258.146 147.679V89.2949C254.106 86.0363 249.857 82.8906 245.407 79.8789ZM228.851 80.6143C228.754 80.5587 227.518 79.8337 223.779 80.8438C219.96 81.8756 214.769 84.4473 208.57 89.1455C201.606 94.4239 194.139 101.8 186.824 110.917C192.601 114.649 198.66 118.357 204.959 121.994C211.256 125.63 217.497 129.022 223.619 132.16C227.857 121.267 230.514 111.114 231.603 102.443C232.572 94.7254 232.204 88.9446 231.188 85.1211C230.193 81.3782 228.947 80.67 228.851 80.6143ZM108.494 55.7959C94.9633 61.5438 84.5522 70.3816 78.041 81.6592C70.8176 94.1707 68.5931 109.338 71.6074 125.794C89.7087 102.641 107.773 80.2235 115.858 69.624C114.062 67.1184 112.517 64.6687 111.26 62.293C110.181 60.2561 109.209 58.064 108.494 55.7959ZM124.081 54.1514C124.246 54.4912 124.425 54.8469 124.622 55.2188C127.362 60.394 132.472 66.9028 139.925 74.3193C148.762 83.1137 160.449 92.7506 174.245 102.447C190.08 82.4336 207.317 69.0528 221.209 65.9072C210.915 60.9061 200.549 57.0024 190.336 54.1514H124.081ZM231.516 54.1514C234.731 55.7929 237.933 57.5311 241.115 59.3682L242.737 60.3135C248.095 63.4701 253.234 66.8173 258.146 70.3242V54.1514H231.516Z" fill="#FF2020"/>
</svg>
